<svg width="1024" height="1024" viewBox="0 0 1024 1024" fill="none" xmlns="http://www.w3.org/2000/svg">
<mask id="path-1-inside-1_17_6" fill="white">
<path d="M62 177C62 113.487 113.487 62 177 62H847C910.513 62 962 113.487 962 177V847C962 910.513 910.513 962 847 962H177C113.487 962 62 910.513 62 847V177Z"/>
</mask>
<path d="M62 177C62 113.487 113.487 62 177 62H847C910.513 62 962 113.487 962 177V847C962 910.513 910.513 962 847 962H177C113.487 962 62 910.513 62 847V177Z" fill="#002179"/>
<g clip-path="url(#paint0_diamond_17_6_clip_path)" data-figma-skip-parse="true" mask="url(#path-1-inside-1_17_6)"><g transform="matrix(0.906 0.891 -1.17004 1.18974 243 225)"><rect x="0" y="0" width="814.885" height="394.603" fill="url(#paint0_diamond_17_6)" opacity="1" shape-rendering="crispEdges"/><rect x="0" y="0" width="814.885" height="394.603" transform="scale(1 -1)" fill="url(#paint0_diamond_17_6)" opacity="1" shape-rendering="crispEdges"/><rect x="0" y="0" width="814.885" height="394.603" transform="scale(-1 1)" fill="url(#paint0_diamond_17_6)" opacity="1" shape-rendering="crispEdges"/><rect x="0" y="0" width="814.885" height="394.603" transform="scale(-1)" fill="url(#paint0_diamond_17_6)" opacity="1" shape-rendering="crispEdges"/></g></g><path d="M177 62V66.3H847V62V57.7H177V62ZM962 177H957.7V847H962H966.3V177H962ZM847 962V957.7H177V962V966.3H847V962ZM62 847H66.3V177H62H57.7V847H62ZM177 962V957.7C115.862 957.7 66.3 908.138 66.3 847H62H57.7C57.7 912.888 111.112 966.3 177 966.3V962ZM962 847H957.7C957.7 908.138 908.138 957.7 847 957.7V962V966.3C912.888 966.3 966.3 912.888 966.3 847H962ZM847 62V66.3C908.138 66.3 957.7 115.862 957.7 177H962H966.3C966.3 111.112 912.888 57.7 847 57.7V62ZM177 62V57.7C111.112 57.7 57.7 111.112 57.7 177H62H66.3C66.3 115.862 115.862 66.3 177 66.3V62Z" data-figma-gradient-fill="{&#34;type&#34;:&#34;GRADIENT_DIAMOND&#34;,&#34;stops&#34;:[{&#34;color&#34;:{&#34;r&#34;:0.13542437553405762,&#34;g&#34;:0.34630513191223145,&#34;b&#34;:0.90865385532379150,&#34;a&#34;:1.0},&#34;position&#34;:0.0},{&#34;color&#34;:{&#34;r&#34;:0.0,&#34;g&#34;:0.10588235408067703,&#34;b&#34;:0.37254902720451355,&#34;a&#34;:1.0},&#34;position&#34;:1.0}],&#34;stopsVar&#34;:[{&#34;color&#34;:{&#34;r&#34;:0.13542437553405762,&#34;g&#34;:0.34630513191223145,&#34;b&#34;:0.90865385532379150,&#34;a&#34;:1.0},&#34;position&#34;:0.0},{&#34;color&#34;:{&#34;r&#34;:0.0,&#34;g&#34;:0.10588235408067703,&#34;b&#34;:0.37254902720451355,&#34;a&#34;:1.0},&#34;position&#34;:1.0}],&#34;transform&#34;:{&#34;m00&#34;:1811.9998779296875,&#34;m01&#34;:-2340.084472656250,&#34;m02&#34;:507.04214477539062,&#34;m10&#34;:1782.0,&#34;m11&#34;:2379.4797363281250,&#34;m12&#34;:-1855.739746093750},&#34;opacity&#34;:1.0,&#34;blendMode&#34;:&#34;NORMAL&#34;,&#34;visible&#34;:true}" mask="url(#path-1-inside-1_17_6)"/>
<path d="M283.994 170C283.994 144.043 305.037 123 330.994 123H692.027C717.985 123 739.027 144.043 739.027 170V689.76C739.027 707.985 724.253 722.76 706.027 722.76H326.994C303.246 722.76 283.994 703.508 283.994 679.76V170Z" fill="white"/>
<path d="M527.674 678.799H725.588C733.638 678.799 739.753 686.041 738.404 693.977L725.21 771.601C724.147 777.85 718.733 782.422 712.394 782.422H317.442C311.397 782.422 306.15 778.255 304.78 772.367L286.724 694.744C284.828 686.592 291.017 678.799 299.386 678.799H527.674Z" fill="white"/>
<path d="M250 859C250 825.311 277.311 798 311 798H713C746.69 798 774 825.311 774 859H250Z" fill="white"/>
<circle cx="512.5" cy="159.5" r="16.5" fill="#001B5F"/>
<rect x="404" y="693" width="217" height="17" rx="8.5" fill="#001B5F"/>
<rect x="316" y="196" width="392" height="463" rx="34" fill="#001B5F"/>
<circle cx="512" cy="346.028" r="51.7913" fill="#FE8502"/>
<path d="M582.697 485.772C585.431 485.734 587.628 483.506 587.628 480.772C587.628 473.18 587.628 466.382 587.628 458.492C587.628 457.799 587.486 457.112 587.198 456.482C583.128 447.569 577.294 439.462 570.006 432.597C562.458 425.486 553.496 419.845 543.634 415.997C533.771 412.148 523.2 410.168 512.525 410.168C501.85 410.168 491.279 412.148 481.417 415.997C471.554 419.845 462.593 425.486 455.044 432.597C447.756 439.462 441.923 447.569 437.852 456.482C437.564 457.112 437.422 457.799 437.422 458.491C437.422 466.443 437.422 473.916 437.423 481.745C437.423 484.507 439.661 486.746 442.423 486.746H512.525L582.697 485.772Z" fill="#FE8502"/>
<path d="M392.578 448.594L392.578 493.246C392.578 504.291 401.532 513.246 412.578 513.246L455.678 513.246" stroke="white" stroke-width="15" stroke-linecap="round"/>
<path d="M631.1 448.594L631.1 493.246C631.1 504.291 622.146 513.246 611.1 513.246L568 513.246" stroke="white" stroke-width="15" stroke-linecap="round"/>
<path d="M392.578 319.299L392.578 274.648C392.578 263.603 401.532 254.648 412.578 254.648L455.678 254.648" stroke="white" stroke-width="15" stroke-linecap="round"/>
<path d="M631.1 319.299L631.1 274.648C631.1 263.603 622.146 254.648 611.1 254.648L568 254.648" stroke="white" stroke-width="15" stroke-linecap="round"/>
<circle cx="640.5" cy="582.5" r="44.5" fill="#FE8502"/>
<path d="M617.923 583.978L633.544 601.111C633.754 601.34 634.12 601.325 634.31 601.079L663.407 563.303" stroke="white" stroke-width="11" stroke-linecap="round"/>
<defs>
<clipPath id="paint0_diamond_17_6_clip_path"><path d="M177 62V66.3H847V62V57.7H177V62ZM962 177H957.7V847H962H966.3V177H962ZM847 962V957.7H177V962V966.3H847V962ZM62 847H66.3V177H62H57.7V847H62ZM177 962V957.7C115.862 957.7 66.3 908.138 66.3 847H62H57.7C57.7 912.888 111.112 966.3 177 966.3V962ZM962 847H957.7C957.7 908.138 908.138 957.7 847 957.7V962V966.3C912.888 966.3 966.3 912.888 966.3 847H962ZM847 62V66.3C908.138 66.3 957.7 115.862 957.7 177H962H966.3C966.3 111.112 912.888 57.7 847 57.7V62ZM177 62V57.7C111.112 57.7 57.7 111.112 57.7 177H62H66.3C66.3 115.862 115.862 66.3 177 66.3V62Z"/></clipPath><linearGradient id="paint0_diamond_17_6" x1="0" y1="0" x2="500" y2="500" gradientUnits="userSpaceOnUse">
<stop stop-color="#2358E8"/>
<stop offset="1" stop-color="#001B5F"/>
</linearGradient>
</defs>
</svg>
